<svg xmlns="http://www.w3.org/2000/svg" xmlns:xlink="http://www.w3.org/1999/xlink" viewBox="0 0 9.82 6.13"><defs><style>.cls-1{fill:none;stroke:#db0a24;stroke-miterlimit:10;stroke-width:0.25px;}</style><symbol id="Nuevo_símbolo" data-name="Nuevo símbolo" viewBox="0 0 9.82 6.13"><path class="cls-1" d="M6.92,1.42a.3.3,0,0,1,.59,0,.3.3,0,0,1-.3.29A.29.29,0,0,1,6.92,1.42Zm1.23.68a.3.3,0,0,1-.59,0,.29.29,0,0,1,.3-.29A.29.29,0,0,1,8.15,2.1Zm-1.88,0a.29.29,0,0,1,.29-.29.31.31,0,0,1,.3.3.31.31,0,0,1-.3.29A.3.3,0,0,1,6.27,2.08Zm1.29.6a.3.3,0,0,1-.3.29A.31.31,0,0,1,7,2.67a.29.29,0,0,1,.29-.29A.31.31,0,0,1,7.56,2.68ZM8.88,4.23a.63.63,0,0,1-.63.62.63.63,0,0,1-.62-.63.63.63,0,1,1,1.25,0Zm-6.79.13A.62.62,0,0,1,1.46,5a.62.62,0,1,1,.63-.62Zm4.4-4c1.07-.46,3.23-.57,3.2,3.37,0,.74-.58,3.75-2.64,1.4a2.44,2.44,0,0,0-3.93-.23c-.25.24-1.07.86-1.07.86S.27,7,.13,3.74C.08,2.63.2-.3,3,.28c.56.12,1.1,1.15,1.92,1.16S5.78.65,6.49.35Z"/><polyline class="cls-1" points="2.34 1.55 2.33 2.79 2.33 2.17 1.8 2.17 2.89 2.18"/></symbol></defs><title>JOSTICK</title><g id="Capa_2" data-name="Capa 2"><g id="Capa_1-2" data-name="Capa 1"><use width="9.82" height="6.13" xlink:href="#icono_juego"/></g></g></svg>