<svg id="contacto" xmlns="http://www.w3.org/2000/svg" viewBox="0 0 1366 768"><defs><style>.cls-1,.cls-2,.cls-3{fill:none;stroke-miterlimit:10;}.cls-1{stroke:#c81d3a;}.cls-2,.cls-3{stroke:#263680;}.cls-3{stroke-width:1.3px;}.cls-4{fill:#263680;}</style></defs><title>mail</title><rect id="rectangulo2" class="cls-1" x="485.5" y="177.5" width="604" height="229" rx="8.5" ry="8.5"/><rect id="rectangulo1" class="cls-2" x="506.5" y="197.5" width="604" height="229" rx="8.5" ry="8.5"/><line class="cls-2" x1="-209.5" y1="596.5" x2="1491.5" y2="598.5"/><path id="FB" class="cls-3" d="M871,271a1.74,1.74,0,0,1,1,1.83c0,2.58,0,5.15,0,7.72,0,1.27-.5,1.8-1.71,1.81-1.49,0-3,0-4.48,0a4.42,4.42,0,0,0-3.84,1.95,5.13,5.13,0,0,0-.78,2.13c-.12,1.36,0,2.73,0,4.17h8.67c1.15,0,1.67.54,1.67,1.78q0,3.75,0,7.48c0,1.21-.52,1.75-1.64,1.76h-8.76v28.61a4,4,0,0,1-.05.77,1.3,1.3,0,0,1-1.39,1.24H849.51a1.31,1.31,0,0,1-1.43-1.27,4,4,0,0,1-.05-.77v-28.6h-8.6c-1.28,0-1.74-.49-1.74-1.87q0-3.66,0-7.3c0-1.35.46-1.83,1.72-1.83h7.93c0-.93,0-1.82,0-2.71a24.93,24.93,0,0,1,1.65-8.6,12.62,12.62,0,0,1,8.44-7.7c.91-.28,1.85-.42,2.77-.62Z"/><g id="BE"><path class="cls-4" d="M765.65,306.32a9.35,9.35,0,0,1,.73,3.16l.06.82h-16l.13-.88a11,11,0,0,1,.84-3,7.86,7.86,0,0,1,1.59-2.35,6.5,6.5,0,0,1,2.4-1.55,8.83,8.83,0,0,1,3.09-.5,9.05,9.05,0,0,1,3,.47,7.54,7.54,0,0,1,2.47,1.43A6.61,6.61,0,0,1,765.65,306.32Zm-.9,2.44a7.33,7.33,0,0,0-.52-1.82,5.06,5.06,0,0,0-1.34-1.84h0a5.74,5.74,0,0,0-2-1.13,7.24,7.24,0,0,0-2.45-.39,7.33,7.33,0,0,0-2.55.41,4.76,4.76,0,0,0-1.84,1.17h0a6.41,6.41,0,0,0-1.28,1.9,8.17,8.17,0,0,0-.56,1.69Z"/><path class="cls-4" d="M773.38,310.89c0-.79-.11-1.49-.2-2.08a16.59,16.59,0,0,0-.87-3.33,14,14,0,0,0-1.53-2.89h0a12.7,12.7,0,0,0-2.31-2.61,11.87,11.87,0,0,0-2.84-1.8,15.56,15.56,0,0,0-3.37-1.05,19.09,19.09,0,0,0-3.78-.36,16.76,16.76,0,0,0-6.05,1,13.57,13.57,0,0,0-4.76,3.12,13.13,13.13,0,0,0-3.09,5.06,21.42,21.42,0,0,0-1.05,7,20.57,20.57,0,0,0,1.16,7.29,11.2,11.2,0,0,0,3.38,4.79,16.84,16.84,0,0,0,5,2.79,17.16,17.16,0,0,0,5.7.93,18.07,18.07,0,0,0,6.54-1.1,12.67,12.67,0,0,0,4.83-3.27h0a13,13,0,0,0,2-2.72,8.93,8.93,0,0,0,.69-1.7h-7.09a9.7,9.7,0,0,1-.65.94,6.8,6.8,0,0,1-1,1.05,6.71,6.71,0,0,1-2.3,1.23,9.11,9.11,0,0,1-2.8.4,10.85,10.85,0,0,1-2.67-.32,8.17,8.17,0,0,1-2.32-1,7,7,0,0,1-2.66-2.94,10.53,10.53,0,0,1-1-4.36l0-.8h23.15v-.59c0-1,0-1.92-.08-2.74m1.33-2.3c.1.62.16,1.36.22,2.22s.07,1.75.07,2.82v.92c0,.15,0,.3,0,.45v.76h-23a8.67,8.67,0,0,0,.79,2.94,5.48,5.48,0,0,0,2.11,2.31h0a6.64,6.64,0,0,0,1.87.8,9.17,9.17,0,0,0,2.29.26,7.7,7.7,0,0,0,2.34-.32,5.09,5.09,0,0,0,1.78-.95h0a5.44,5.44,0,0,0,.79-.8,10.18,10.18,0,0,0,.73-1.14l.22-.41h9.8l-.11.86a8.67,8.67,0,0,1-1,3.11,14.9,14.9,0,0,1-2.25,3.05,14.29,14.29,0,0,1-5.41,3.65,19.46,19.46,0,0,1-7.1,1.22,18.73,18.73,0,0,1-6.21-1,18.4,18.4,0,0,1-5.45-3.05h0a12.61,12.61,0,0,1-3.87-5.44A21.94,21.94,0,0,1,742,313a22.88,22.88,0,0,1,1.14-7.53,14.48,14.48,0,0,1,3.46-5.63,14.87,14.87,0,0,1,5.3-3.47,18.07,18.07,0,0,1,6.6-1.15,21.56,21.56,0,0,1,4.08.38,17.45,17.45,0,0,1,3.69,1.17,13.27,13.27,0,0,1,3.22,2,14.31,14.31,0,0,1,2.58,2.92,14.89,14.89,0,0,1,1.69,3.21,17.72,17.72,0,0,1,1,3.66Z"/><path class="cls-4" d="M730,312.59a6.36,6.36,0,0,1,.82,3.3,8.06,8.06,0,0,1-.82,3.78,5.67,5.67,0,0,1-2.52,2.44h0a8.21,8.21,0,0,1-2.13.65,16.77,16.77,0,0,1-2.69.2H712.47V309.64h10.29a17.05,17.05,0,0,1,2.65.21,8.35,8.35,0,0,1,2.09.61,5.27,5.27,0,0,1,2.46,2.13m-.73,3.3a4.85,4.85,0,0,0-.6-2.52,3.82,3.82,0,0,0-1.76-1.51h0a6.76,6.76,0,0,0-1.7-.49,16.74,16.74,0,0,0-2.41-.2H714v10.24h8.59a14.52,14.52,0,0,0,2.43-.18,6.4,6.4,0,0,0,1.71-.52,4,4,0,0,0,1.84-1.77,6.55,6.55,0,0,0,.64-3.06"/><path class="cls-4" d="M722.62,303.87H712.47v-11.3h9a21.24,21.24,0,0,1,3,.19,13.85,13.85,0,0,1,2.5.54l0,0a4.36,4.36,0,0,1,2.16,1.84,5.73,5.73,0,0,1,.7,2.95,6.3,6.3,0,0,1-.52,2.69,4.06,4.06,0,0,1-1.65,1.85h0a8,8,0,0,1-2.29.91,12.05,12.05,0,0,1-2.79.3m-8.6-1.55h8.6a10.65,10.65,0,0,0,2.44-.25,6.21,6.21,0,0,0,1.84-.73,2.62,2.62,0,0,0,1.05-1.18,4.88,4.88,0,0,0,.37-2.05,4.2,4.2,0,0,0-.49-2.17,2.74,2.74,0,0,0-1.38-1.18,12,12,0,0,0-2.18-.48,21,21,0,0,0-2.78-.17H714Z"/><path class="cls-4" d="M738.16,313.2a9.6,9.6,0,0,0-1.2-2.73h0a8.18,8.18,0,0,0-2-2.11,10.66,10.66,0,0,0-2.76-1.48l-1.67-.61,1.59-.8a14.21,14.21,0,0,0,1.84-1.12,7.85,7.85,0,0,0,1.28-1.2,7.62,7.62,0,0,0,1.4-2.59,11.64,11.64,0,0,0,.47-3.42,12.17,12.17,0,0,0-.47-3.44,9.88,9.88,0,0,0-1.4-2.86,9.77,9.77,0,0,0-4.24-3.21,18.29,18.29,0,0,0-6.61-1.18H703.8v42.65H723c1.11,0,2.17,0,3.17-.14a29.45,29.45,0,0,0,2.93-.44,13.13,13.13,0,0,0,2.53-.8,10.57,10.57,0,0,0,2.16-1.27h0a10.64,10.64,0,0,0,1.61-1.47,11.39,11.39,0,0,0,1.33-1.79h0a12,12,0,0,0,1.39-3.11,13,13,0,0,0,.46-3.53h0a12.86,12.86,0,0,0-.4-3.32m.1-3.57a11.09,11.09,0,0,1,1.39,3.18,14.18,14.18,0,0,1,.46,3.71h0a14.42,14.42,0,0,1-.52,3.94A13.14,13.14,0,0,1,738,324a14.94,14.94,0,0,1-1.49,2,13,13,0,0,1-1.82,1.65,12.49,12.49,0,0,1-2.47,1.47,14.83,14.83,0,0,1-2.85.9,27,27,0,0,1-3.09.46c-1.09.1-2.2.15-3.32.15H702.25V284.9h22.19a19.89,19.89,0,0,1,7.19,1.3,11.18,11.18,0,0,1,4.89,3.72h0a11.53,11.53,0,0,1,1.63,3.32,13.43,13.43,0,0,1,.54,3.88,12.76,12.76,0,0,1-.55,3.88,9.09,9.09,0,0,1-1.68,3.11,8.33,8.33,0,0,1-1.55,1.45l-.69.48a11.8,11.8,0,0,1,1.71,1.08A9.85,9.85,0,0,1,738.26,309.63Z"/><rect class="cls-4" x="749.21" y="290.02" width="18.57" height="1.54"/></g><path id="Github" class="cls-3" d="M608.62,283a23.57,23.57,0,0,0-7.46,45.94c1.18.22,1.61-.51,1.61-1.13s0-2,0-4c-6.57,1.43-8-3.16-8-3.16-1.07-2.73-2.62-3.45-2.62-3.45-2.14-1.46.16-1.43.16-1.43a5,5,0,0,1,3.62,2.43c2.1,3.6,5.52,2.56,6.86,2a5,5,0,0,1,1.5-3.15c-5.24-.6-10.75-2.62-10.75-11.66A9.08,9.08,0,0,1,596,299a8.51,8.51,0,0,1,.23-6.24s2-.64,6.49,2.41a22.5,22.5,0,0,1,11.82,0c4.51-3.05,6.48-2.41,6.48-2.41a8.48,8.48,0,0,1,.24,6.24,9.08,9.08,0,0,1,2.42,6.32c0,9.06-5.51,11.05-10.77,11.64a5.64,5.64,0,0,1,1.6,4.36c0,3.15,0,5.69,0,6.47,0,.63.43,1.36,1.62,1.13A23.57,23.57,0,0,0,608.62,283Z"/><path id="linkedin" class="cls-3" d="M958.4,265a7.75,7.75,0,0,1,8.07,8c-.05,4.46-3.61,7.74-8.35,7.67a7.74,7.74,0,0,1-8-7.88C950.16,268.28,953.68,265,958.4,265Zm-7.34,21.88h14.38v45H951.06Zm66.8,45.09h-14.44v-1.65c0-7.33,0-14.66,0-22a25.65,25.65,0,0,0-.56-5.17c-.59-2.74-2.15-4.71-4.93-5.34a7.3,7.3,0,0,0-7.57,2.42,8.12,8.12,0,0,0-2.15,5.41q0,12.13,0,24.29v1.94H973.72v-45H988.1v6.17c.9-1.14,1.5-1.92,2.13-2.68,5.75-7,21.49-6.85,25.91,5.29a27.6,27.6,0,0,1,1.72,8.5c.23,9.06.11,18.14.11,27.2A3.25,3.25,0,0,1,1017.86,332Z"/></svg>